<?xml version="1.0" encoding="UTF-8" standalone="no"?>
<!DOCTYPE svg PUBLIC "-//W3C//DTD SVG 1.1//EN"
 "http://www.w3.org/Graphics/SVG/1.1/DTD/svg11.dtd">
<!-- Generated by graphviz version 12.1.1 (20240910.0053)
 -->
<!-- Title: INFRA Pages: 1 -->
<svg width="432pt" height="404pt"
 viewBox="0.00 0.00 432.50 404.00" xmlns="http://www.w3.org/2000/svg" xmlns:xlink="http://www.w3.org/1999/xlink">
<g id="graph0" class="graph" transform="scale(1 1) rotate(0) translate(4 400)">
<title>INFRA</title>
<polygon fill="white" stroke="none" points="-4,4 -4,-400 428.5,-400 428.5,4 -4,4"/>
<!-- Redis -->
<g id="node1" class="node">
<title>Redis</title>
<path fill="#ffcfb3" stroke="black" stroke-width="2" d="M232.29,-65.45C232.29,-69.07 180.23,-72 116.14,-72 52.06,-72 0,-69.07 0,-65.45 0,-65.45 0,-6.55 0,-6.55 0,-2.93 52.06,0 116.14,0 180.23,0 232.29,-2.93 232.29,-6.55 232.29,-6.55 232.29,-65.45 232.29,-65.45"/>
<path fill="none" stroke="black" stroke-width="2" d="M232.29,-65.45C232.29,-61.84 180.23,-58.91 116.14,-58.91 52.06,-58.91 0,-61.84 0,-65.45"/>
<text text-anchor="middle" x="116.14" y="-40.2" font-family="Arial" font-size="14.00">Redis</text>
<text text-anchor="middle" x="116.14" y="-23.4" font-family="Arial" font-size="14.00">(AWS::ElastiCache::CacheCluster)</text>
</g>
<!-- PostgreSQL -->
<g id="node2" class="node">
<title>PostgreSQL</title>
<path fill="#ffcfb3" stroke="black" stroke-width="2" d="M424.5,-65.45C424.5,-69.07 385.34,-72 337.14,-72 288.95,-72 249.79,-69.07 249.79,-65.45 249.79,-65.45 249.79,-6.55 249.79,-6.55 249.79,-2.93 288.95,0 337.14,0 385.34,0 424.5,-2.93 424.5,-6.55 424.5,-6.55 424.5,-65.45 424.5,-65.45"/>
<path fill="none" stroke="black" stroke-width="2" d="M424.5,-65.45C424.5,-61.84 385.34,-58.91 337.14,-58.91 288.95,-58.91 249.79,-61.84 249.79,-65.45"/>
<text text-anchor="middle" x="337.14" y="-40.2" font-family="Arial" font-size="14.00">PostgreSQL</text>
<text text-anchor="middle" x="337.14" y="-23.4" font-family="Arial" font-size="14.00">(AWS::RDS::DBInstance)</text>
</g>
<!-- AuthService -->
<g id="node3" class="node">
<title>AuthService</title>
<path fill="#b7e0ff" stroke="black" stroke-width="2" d="M297.27,-180C297.27,-180 173.02,-180 173.02,-180 167.02,-180 161.02,-174 161.02,-168 161.02,-168 161.02,-120 161.02,-120 161.02,-114 167.02,-108 173.02,-108 173.02,-108 297.27,-108 297.27,-108 303.27,-108 309.27,-114 309.27,-120 309.27,-120 309.27,-168 309.27,-168 309.27,-174 303.27,-180 297.27,-180"/>
<text text-anchor="middle" x="235.14" y="-148.2" font-family="Arial" font-size="14.00">AuthService</text>
<text text-anchor="middle" x="235.14" y="-131.4" font-family="Arial" font-size="14.00">(AWS::ECS::Service)</text>
</g>
<!-- AuthService&#45;&gt;Redis -->
<g id="edge1" class="edge">
<title>AuthService&#45;&gt;Redis</title>
<path fill="none" stroke="black" d="M195.52,-107.7C185.48,-98.76 174.59,-89.06 164.19,-79.8"/>
<polygon fill="black" stroke="black" points="166.52,-77.19 156.73,-73.15 161.87,-82.41 166.52,-77.19"/>
</g>
<!-- AuthService&#45;&gt;PostgreSQL -->
<g id="edge2" class="edge">
<title>AuthService&#45;&gt;PostgreSQL</title>
<path fill="none" stroke="black" d="M269.11,-107.7C277.54,-98.94 286.67,-89.45 295.43,-80.35"/>
<polygon fill="black" stroke="black" points="297.87,-82.87 302.28,-73.23 292.82,-78.01 297.87,-82.87"/>
</g>
<!-- ShoppingService -->
<g id="node4" class="node">
<title>ShoppingService</title>
<path fill="#b7e0ff" stroke="black" stroke-width="2" d="M399.27,-288C399.27,-288 275.02,-288 275.02,-288 269.02,-288 263.02,-282 263.02,-276 263.02,-276 263.02,-228 263.02,-228 263.02,-222 269.02,-216 275.02,-216 275.02,-216 399.27,-216 399.27,-216 405.27,-216 411.27,-222 411.27,-228 411.27,-228 411.27,-276 411.27,-276 411.27,-282 405.27,-288 399.27,-288"/>
<text text-anchor="middle" x="337.14" y="-256.2" font-family="Arial" font-size="14.00">ShoppingService</text>
<text text-anchor="middle" x="337.14" y="-239.4" font-family="Arial" font-size="14.00">(AWS::ECS::Service)</text>
</g>
<!-- ShoppingService&#45;&gt;PostgreSQL -->
<g id="edge4" class="edge">
<title>ShoppingService&#45;&gt;PostgreSQL</title>
<path fill="none" stroke="black" d="M337.14,-215.66C337.14,-179.65 337.14,-123.6 337.14,-83.89"/>
<polygon fill="black" stroke="black" points="340.64,-83.9 337.14,-73.9 333.64,-83.9 340.64,-83.9"/>
</g>
<!-- ShoppingService&#45;&gt;AuthService -->
<g id="edge3" class="edge">
<title>ShoppingService&#45;&gt;AuthService</title>
<path fill="none" stroke="black" d="M303.18,-215.7C294.75,-206.94 285.62,-197.45 276.86,-188.35"/>
<polygon fill="black" stroke="black" points="279.47,-186.01 270.01,-181.23 274.42,-190.87 279.47,-186.01"/>
</g>
<!-- Frontend -->
<g id="node5" class="node">
<title>Frontend</title>
<path fill="#fff5cd" stroke="black" stroke-width="2" d="M352.49,-389.45C352.49,-393.07 322.75,-396 286.14,-396 249.53,-396 219.8,-393.07 219.8,-389.45 219.8,-389.45 219.8,-330.55 219.8,-330.55 219.8,-326.93 249.53,-324 286.14,-324 322.75,-324 352.49,-326.93 352.49,-330.55 352.49,-330.55 352.49,-389.45 352.49,-389.45"/>
<path fill="none" stroke="black" stroke-width="2" d="M352.49,-389.45C352.49,-385.84 322.75,-382.91 286.14,-382.91 249.53,-382.91 219.8,-385.84 219.8,-389.45"/>
<text text-anchor="middle" x="286.14" y="-364.2" font-family="Arial" font-size="14.00">Frontend</text>
<text text-anchor="middle" x="286.14" y="-347.4" font-family="Arial" font-size="14.00">(AWS::S3::Bucket)</text>
</g>
<!-- Frontend&#45;&gt;AuthService -->
<g id="edge5" class="edge">
<title>Frontend&#45;&gt;AuthService</title>
<path fill="none" stroke="black" d="M267.77,-323.65C262.65,-312.5 257.56,-299.96 254.14,-288 245.15,-256.46 240.39,-219.77 237.88,-191.45"/>
<polygon fill="black" stroke="black" points="241.39,-191.45 237.09,-181.76 234.41,-192.01 241.39,-191.45"/>
</g>
<!-- Frontend&#45;&gt;ShoppingService -->
<g id="edge6" class="edge">
<title>Frontend&#45;&gt;ShoppingService</title>
<path fill="none" stroke="black" d="M303.13,-323.7C307.04,-315.57 311.26,-306.8 315.34,-298.31"/>
<polygon fill="black" stroke="black" points="318.4,-300.03 319.58,-289.51 312.09,-297 318.4,-300.03"/>
</g>
</g>
</svg>
